<svg width="32" height="32" viewBox="0 0 32 32" fill="none" xmlns="http://www.w3.org/2000/svg">
<path d="M15.4287 25.1428L18.2859 30.8571L20.5716 27.4285H24.5716L20.5716 18.8571" fill="white"/>
<path d="M15.4287 25.1428L18.2859 30.8571L20.5716 27.4285H24.5716L20.5716 18.8571L18.2859 21.1428L17.143 20.5714L15.4287 25.1428Z" stroke="#7A7A7A" stroke-linecap="round" stroke-linejoin="round"/>
<path d="M17.1426 21.1429L13.1426 30.8572L10.8569 27.4286H6.28544L10.2854 19.4286" fill="white"/>
<path d="M17.1426 21.1429L13.1426 30.8572L10.8569 27.4286H6.28544L10.2854 19.4286L11.4283 20L13.1426 21.7143L15.4283 21.1429H17.1426Z" stroke="#7A7A7A" stroke-linecap="round" stroke-linejoin="round"/>
<path d="M17.5142 2.94392L17.6421 3.01883L17.7901 3.01194L20.2047 2.89952L21.4838 4.95053L21.5623 5.0763L21.6966 5.139L23.8868 6.16157L24.0663 8.57209L24.0773 8.7199L24.167 8.83783L25.6312 10.7611L24.6699 12.9789L24.6109 13.1149L24.6356 13.2611L25.0382 15.6445L23.1564 17.1615L23.041 17.2545L22.9949 17.3954L22.2438 19.6929L19.8725 20.1616L19.7271 20.1904L19.6208 20.2937L17.888 21.979L15.5705 21.292L15.4284 21.2499L15.2863 21.292L12.9688 21.979L11.236 20.2937L11.1298 20.1904L10.9844 20.1616L8.61306 19.6929L7.86195 17.3954L7.8159 17.2545L7.7005 17.1615L5.81862 15.6445L6.22126 13.2611L6.24595 13.1149L6.18701 12.9789L5.22568 10.7611L6.68982 8.83783L6.7796 8.7199L6.79061 8.57209L6.97006 6.16157L9.1603 5.139L9.2946 5.0763L9.37303 4.95053L10.6522 2.89952L13.0667 3.01194L13.2148 3.01883L13.3427 2.94392L15.4284 1.72227L17.5142 2.94392Z" fill="white" stroke="#7A7A7A"/>
</svg>
