<svg width="44" height="44" viewBox="0 0 44 44" fill="none" xmlns="http://www.w3.org/2000/svg">
<path d="M21.2139 34.5714L25.1424 42.4286L28.2853 37.7143H33.7853L28.2853 25.9286" fill="#A78EC3"/>
<path d="M21.2139 34.5714L25.1424 42.4286L28.2853 37.7143H33.7853L28.2853 25.9286L25.1424 29.0714L23.571 28.2857L21.2139 34.5714Z" stroke="white" stroke-width="1.2" stroke-linecap="round" stroke-linejoin="round"/>
<path d="M23.5713 29.0714L18.0713 42.4286L14.9284 37.7143H8.64272L14.1427 26.7143" fill="#A78EC3"/>
<path d="M23.5713 29.0714L18.0713 42.4286L14.9284 37.7143H8.64272L14.1427 26.7143L15.7141 27.5L18.0713 29.8572L21.2141 29.0714H23.5713Z" stroke="white" stroke-width="1.2" stroke-linecap="round" stroke-linejoin="round"/>
<path d="M24.1268 3.97242L24.2803 4.06231L24.458 4.05404L27.8292 3.89708L29.6151 6.76071L29.7092 6.91163L29.8704 6.98687L32.9284 8.41459L33.179 11.7802L33.1922 11.9575L33.2999 12.099L35.3442 14.7844L34.0019 17.8809L33.9312 18.044L33.9608 18.2194L34.523 21.5472L31.8955 23.6652L31.757 23.7768L31.7018 23.9459L30.6531 27.1537L27.3423 27.8081L27.1678 27.8426L27.0403 27.9666L24.6209 30.3196L21.3852 29.3604L21.2147 29.3099L21.0442 29.3604L17.8085 30.3196L15.3891 27.9666L15.2616 27.8426L15.0872 27.8081L11.7763 27.1537L10.7276 23.9459L10.6724 23.7768L10.5339 23.6652L7.9064 21.5472L8.46857 18.2194L8.4982 18.044L8.42746 17.8809L7.08525 14.7844L9.1295 12.099L9.23723 11.9575L9.25044 11.7802L9.50099 8.41459L12.559 6.98687L12.7202 6.91163L12.8143 6.76071L14.6002 3.89708L17.9714 4.05404L18.1491 4.06231L18.3026 3.97242L21.2147 2.26675L24.1268 3.97242Z" fill="#A78EC3" stroke="white" stroke-width="1.2"/>
</svg>
