<svg width="39" height="40" viewBox="0 0 39 40" fill="none" xmlns="http://www.w3.org/2000/svg">
<path fill-rule="evenodd" clip-rule="evenodd" d="M30.6397 12.5713H34.1306C36.8151 12.5713 39 14.7616 39 17.4537V34.2163C39 36.9075 36.8151 39.0979 34.1298 39.0979H4.8698C2.18487 39.0979 0 36.9075 0 34.2154V4.88202C0 2.19035 2.18487 0 4.8698 0H25.7703C28.4553 0 30.6397 2.19035 30.6397 4.88202V12.5713ZM4.8698 37.7147C2.94493 37.7147 1.3793 36.1447 1.3793 34.215V4.88202C1.3793 2.95189 2.94493 1.38276 4.8698 1.38276H25.7703C27.6948 1.38276 29.2604 2.95189 29.2604 4.88202V34.2154C29.2604 35.5869 29.8276 36.8267 30.7381 37.7151H4.8698V37.7147ZM34.1293 37.7155C36.0551 37.7155 37.6203 36.1455 37.6203 34.2163V17.4542C37.6203 15.5245 36.0546 13.9549 34.1293 13.9549H30.6388V34.2163C30.6388 36.146 32.2049 37.7155 34.1293 37.7155Z" fill="white"/>
<path d="M23.4956 30.8262H8.15471C7.77338 30.8262 7.46484 31.1355 7.46484 31.5178C7.46484 31.9001 7.77338 32.2094 8.15471 32.2094H23.4951C23.8765 32.2094 24.185 31.9001 24.185 31.5178C24.185 31.1355 23.8769 30.8262 23.4956 30.8262Z" fill="white"/>
<path d="M23.4956 23.4932H8.15471C7.77338 23.4932 7.46484 23.8029 7.46484 24.1848C7.46484 24.5671 7.77338 24.8768 8.15471 24.8768H23.4951C23.8765 24.8768 24.185 24.5671 24.185 24.1848C24.185 23.8025 23.8769 23.4932 23.4956 23.4932Z" fill="white"/>
<path d="M16.2321 14.1063C15.7601 14.1063 15.3201 14.0383 14.9121 13.9023C14.5041 13.7663 14.1521 13.5703 13.8561 13.3143C13.5601 13.0503 13.3361 12.7423 13.1841 12.3903C13.1281 12.2623 13.1241 12.1463 13.1721 12.0423C13.2281 11.9303 13.3241 11.8583 13.4601 11.8263C13.5641 11.7943 13.6641 11.8063 13.7601 11.8623C13.8641 11.9103 13.9401 11.9903 13.9881 12.1023C14.1481 12.4463 14.4281 12.7223 14.8281 12.9303C15.2281 13.1383 15.6961 13.2423 16.2321 13.2423C16.6401 13.2423 17.0001 13.1783 17.3121 13.0503C17.6241 12.9143 17.8681 12.7223 18.0441 12.4743C18.2281 12.2183 18.3201 11.9063 18.3201 11.5383C18.3281 11.0423 18.1601 10.6183 17.8161 10.2663C17.4801 9.90633 16.9521 9.67833 16.2321 9.58233C15.6721 9.51033 15.1841 9.35833 14.7681 9.12633C14.3521 8.89433 14.0321 8.59833 13.8081 8.23833C13.5841 7.87833 13.4721 7.46633 13.4721 7.00233C13.4721 6.51433 13.5961 6.09833 13.8441 5.75433C14.1001 5.41033 14.4441 5.14633 14.8761 4.96233C15.3161 4.77833 15.8081 4.68633 16.3521 4.68633C16.7841 4.68633 17.1681 4.75433 17.5041 4.89033C17.8481 5.01833 18.1441 5.19433 18.3921 5.41833C18.6401 5.64233 18.8401 5.89033 18.9921 6.16233C19.0641 6.29033 19.0881 6.41433 19.0641 6.53433C19.0481 6.64633 18.9841 6.73033 18.8721 6.78633C18.7761 6.85033 18.6681 6.86233 18.5481 6.82233C18.4361 6.78233 18.3481 6.71033 18.2841 6.60633C18.1241 6.32633 17.8921 6.07833 17.5881 5.86233C17.2841 5.64633 16.8721 5.53833 16.3521 5.53833C15.7521 5.53033 15.2721 5.65033 14.9121 5.89833C14.5521 6.14633 14.3721 6.52233 14.3721 7.02633C14.3721 7.29033 14.4281 7.54233 14.5401 7.78233C14.6601 8.02233 14.8681 8.23433 15.1641 8.41833C15.4601 8.60233 15.8761 8.73433 16.4121 8.81433C17.3321 8.95033 18.0321 9.25033 18.5121 9.71433C19.0001 10.1703 19.2441 10.7703 19.2441 11.5143C19.2441 11.9303 19.1641 12.2983 19.0041 12.6183C18.8521 12.9383 18.6401 13.2103 18.3681 13.4343C18.0961 13.6583 17.7761 13.8263 17.4081 13.9383C17.0401 14.0503 16.6481 14.1063 16.2321 14.1063ZM16.3161 15.1743C16.2281 15.1743 16.1521 15.1423 16.0881 15.0783C16.0321 15.0223 16.0041 14.9423 16.0041 14.8383V4.12233C16.0041 4.01033 16.0321 3.92633 16.0881 3.87033C16.1521 3.81433 16.2281 3.78633 16.3161 3.78633C16.3961 3.78633 16.4641 3.81433 16.5201 3.87033C16.5841 3.92633 16.6161 4.01033 16.6161 4.12233V14.8383C16.6161 14.9423 16.5841 15.0223 16.5201 15.0783C16.4641 15.1423 16.3961 15.1743 16.3161 15.1743Z" fill="white"/>
</svg>
