<svg width="27" height="27" viewBox="0 0 27 27" fill="none" xmlns="http://www.w3.org/2000/svg">
<path fill-rule="evenodd" clip-rule="evenodd" d="M21.0247 8.42031H23.4202C25.2623 8.42031 26.7615 9.88742 26.7615 11.6906V22.9183C26.7615 24.7209 25.2623 26.188 23.4196 26.188H3.34162C1.49924 26.188 0 24.7209 0 22.9177V3.27001C0 1.46711 1.49924 0 3.34162 0H17.6834C19.5258 0 21.0247 1.46711 21.0247 3.27001V8.42031ZM3.34162 25.2615C2.02079 25.2615 0.946466 24.2099 0.946466 22.9174V3.27001C0.946466 1.97719 2.02079 0.926182 3.34162 0.926182H17.6834C19.0039 0.926182 20.0783 1.97719 20.0783 3.27001V22.9177C20.0783 23.8363 20.4675 24.6668 21.0922 25.2618H3.34162V25.2615ZM23.4193 25.2621C24.7407 25.2621 25.8148 24.2105 25.8148 22.9183V11.6909C25.8148 10.3984 24.7404 9.34708 23.4193 9.34708H21.0241V22.9183C21.0241 24.2108 22.0988 25.2621 23.4193 25.2621Z" fill="#7A7A7A"/>
<path d="M16.1232 20.6475H5.59643C5.33476 20.6475 5.12305 20.8546 5.12305 21.1107C5.12305 21.3668 5.33476 21.574 5.59643 21.574H16.1229C16.3846 21.574 16.5963 21.3668 16.5963 21.1107C16.5963 20.8546 16.3849 20.6475 16.1232 20.6475Z" fill="#7A7A7A"/>
<path d="M16.1232 15.7363H5.59643C5.33476 15.7363 5.12305 15.9438 5.12305 16.1996C5.12305 16.4556 5.33476 16.6631 5.59643 16.6631H16.1229C16.3846 16.6631 16.5963 16.4556 16.5963 16.1996C16.5963 15.9435 16.3849 15.7363 16.1232 15.7363Z" fill="#7A7A7A"/>
<path d="M11.1534 13.12C10.6814 13.12 10.2414 13.052 9.83337 12.916C9.42537 12.78 9.07337 12.584 8.77737 12.328C8.48137 12.064 8.25737 11.756 8.10537 11.404C8.04937 11.276 8.04537 11.16 8.09337 11.056C8.14937 10.944 8.24537 10.872 8.38137 10.84C8.48537 10.808 8.58537 10.82 8.68137 10.876C8.78537 10.924 8.86137 11.004 8.90937 11.116C9.06937 11.46 9.34937 11.736 9.74937 11.944C10.1494 12.152 10.6174 12.256 11.1534 12.256C11.5614 12.256 11.9214 12.192 12.2334 12.064C12.5454 11.928 12.7894 11.736 12.9654 11.488C13.1494 11.232 13.2414 10.92 13.2414 10.552C13.2494 10.056 13.0814 9.632 12.7374 9.28C12.4014 8.92 11.8734 8.692 11.1534 8.596C10.5934 8.524 10.1054 8.372 9.68937 8.14C9.27337 7.908 8.95337 7.612 8.72937 7.252C8.50537 6.892 8.39337 6.48 8.39337 6.016C8.39337 5.528 8.51737 5.112 8.76537 4.768C9.02137 4.424 9.36537 4.16 9.79737 3.976C10.2374 3.792 10.7294 3.7 11.2734 3.7C11.7054 3.7 12.0894 3.768 12.4254 3.904C12.7694 4.032 13.0654 4.208 13.3134 4.432C13.5614 4.656 13.7614 4.904 13.9134 5.176C13.9854 5.304 14.0094 5.428 13.9854 5.548C13.9694 5.66 13.9054 5.744 13.7934 5.8C13.6974 5.864 13.5894 5.876 13.4694 5.836C13.3574 5.796 13.2694 5.724 13.2054 5.62C13.0454 5.34 12.8134 5.092 12.5094 4.876C12.2054 4.66 11.7934 4.552 11.2734 4.552C10.6734 4.544 10.1934 4.664 9.83337 4.912C9.47337 5.16 9.29337 5.536 9.29337 6.04C9.29337 6.304 9.34937 6.556 9.46137 6.796C9.58137 7.036 9.78937 7.248 10.0854 7.432C10.3814 7.616 10.7974 7.748 11.3334 7.828C12.2534 7.964 12.9534 8.264 13.4334 8.728C13.9214 9.184 14.1654 9.784 14.1654 10.528C14.1654 10.944 14.0854 11.312 13.9254 11.632C13.7734 11.952 13.5614 12.224 13.2894 12.448C13.0174 12.672 12.6974 12.84 12.3294 12.952C11.9614 13.064 11.5694 13.12 11.1534 13.12ZM11.2374 14.188C11.1494 14.188 11.0734 14.156 11.0094 14.092C10.9534 14.036 10.9254 13.956 10.9254 13.852V3.136C10.9254 3.024 10.9534 2.94 11.0094 2.884C11.0734 2.828 11.1494 2.8 11.2374 2.8C11.3174 2.8 11.3854 2.828 11.4414 2.884C11.5054 2.94 11.5374 3.024 11.5374 3.136V13.852C11.5374 13.956 11.5054 14.036 11.4414 14.092C11.3854 14.156 11.3174 14.188 11.2374 14.188Z" fill="#7A7A7A"/>
</svg>
