<svg width="28" height="22" viewBox="0 0 28 22" fill="none" xmlns="http://www.w3.org/2000/svg">
<path fill-rule="evenodd" clip-rule="evenodd" d="M20.8469 0C22.9917 0 24.6598 0.638418 25.6818 1.17362C26.4668 1.58503 26.7124 1.78305 26.7534 1.81842C26.9741 2.00861 27.1287 2.34174 27.1287 2.62906V20.5277C27.1287 21.1403 26.7766 21.414 26.4272 21.414C26.3146 21.414 26.1477 21.3844 25.9705 21.2502L25.2349 20.8652C24.3086 20.3796 22.7954 19.8011 20.8469 19.8011C18.7095 19.8011 16.6105 20.4828 15.2261 21.0545L14.4429 21.3778C14.2475 21.4778 14.0022 21.5323 13.7482 21.5323C13.494 21.5323 13.2484 21.4778 13.0527 21.3778L12.2683 21.0539C10.8839 20.4825 8.78576 19.8011 6.64871 19.8011C4.70047 19.8011 3.18726 20.3796 2.26101 20.8652L1.52566 21.2502C1.34815 21.3841 1.18163 21.414 1.06893 21.414C0.719547 21.414 0.367188 21.14 0.367188 20.5277V2.62906C0.367188 2.34174 0.52181 2.00803 0.742741 1.81813C0.78437 1.78305 1.02968 1.58532 1.81439 1.17391C2.83609 0.638418 4.50452 0 6.64901 0C9.70606 0 12.6228 1.27829 13.6204 1.7642C13.6909 1.79871 13.8053 1.79871 13.8758 1.7642C14.8734 1.27858 17.7898 0 20.8469 0ZM26.0553 20.2468C26.1254 20.2836 26.1819 20.2508 26.1819 20.1734V2.62848C26.1796 2.60064 26.1468 2.53106 26.124 2.50729C26.1228 2.50671 25.909 2.34 25.2334 1.98629C24.3077 1.50124 22.7951 0.922836 20.8469 0.922836C18.0684 0.922836 15.3239 2.10197 14.3498 2.56701C14.2784 2.60064 14.221 2.69139 14.221 2.76909V20.3271C14.221 20.4042 14.2802 20.4425 14.3531 20.4123L14.8562 20.2044C16.3215 19.5991 18.5504 18.8774 20.8466 18.8774C22.992 18.8774 24.6607 19.5161 25.683 20.0519L26.0553 20.2468ZM13.2746 20.3274C13.2746 20.4045 13.2157 20.4425 13.1425 20.4126L12.6376 20.2038C11.1726 19.5994 8.94485 18.8777 6.64871 18.8777C4.50362 18.8777 2.8346 19.5164 1.81261 20.0522L1.44003 20.2468C1.37074 20.2836 1.31395 20.2508 1.31395 20.1734V2.63283C1.31663 2.60093 1.34904 2.53106 1.36301 2.5154C1.36539 2.51366 1.57383 2.34754 2.26279 1.98658C3.18874 1.50153 4.70136 0.923127 6.64901 0.923127C9.42774 0.923127 12.1723 2.10197 13.1464 2.5673C13.2175 2.60122 13.2749 2.69197 13.2749 2.76938V20.3274H13.2746Z" fill="#7A7A7A"/>
</svg>
