<svg width="32" height="27" viewBox="0 0 32 27" fill="none" xmlns="http://www.w3.org/2000/svg">
<path fill-rule="evenodd" clip-rule="evenodd" d="M24.4885 0C27.0532 0 29.0478 0.800532 30.2699 1.47164C31.2085 1.98752 31.5022 2.23582 31.5513 2.28018C31.8151 2.51866 32 2.93638 32 3.29666V25.7403C32 26.5085 31.579 26.8517 31.1612 26.8517C31.0265 26.8517 30.827 26.8146 30.6151 26.6463L29.7355 26.1635C28.6279 25.5546 26.8185 24.8292 24.4885 24.8292C21.9328 24.8292 19.4229 25.684 17.7675 26.4009L16.8309 26.8062C16.5973 26.9317 16.304 27 16.0004 27C15.6964 27 15.4027 26.9317 15.1687 26.8062L14.2308 26.4001C12.5753 25.6836 10.0665 24.8292 7.51111 24.8292C5.18151 24.8292 3.37209 25.5546 2.26453 26.1635L1.38524 26.6463C1.17298 26.8142 0.973867 26.8517 0.839111 26.8517C0.421333 26.8517 0 26.5081 0 25.7403V3.29666C0 2.93638 0.184889 2.51794 0.449067 2.27981C0.498844 2.23582 0.792178 1.98788 1.73049 1.47201C2.95218 0.800532 4.9472 0 7.51147 0C11.1669 0 14.6546 1.60288 15.8475 2.21219C15.9317 2.25545 16.0686 2.25545 16.1529 2.21219C17.3458 1.60325 20.8331 0 24.4885 0ZM30.7164 25.388C30.8004 25.4342 30.8679 25.3931 30.8679 25.296V3.29593C30.8651 3.26103 30.826 3.17378 30.7986 3.14396C30.7972 3.14324 30.5415 2.9342 29.7337 2.49067C28.6268 1.88245 26.8181 1.15717 24.4885 1.15717C21.1662 1.15717 17.8844 2.63573 16.7196 3.21886C16.6343 3.26103 16.5657 3.37482 16.5657 3.47225V25.4887C16.5657 25.5854 16.6364 25.6334 16.7236 25.5956L17.3252 25.3349C19.0773 24.5759 21.7426 23.671 24.4882 23.671C27.0535 23.671 29.0489 24.4719 30.2713 25.1437L30.7164 25.388ZM15.434 25.4891C15.434 25.5858 15.3636 25.6334 15.2761 25.596L14.6724 25.3342C12.9205 24.5762 10.2567 23.6713 7.51111 23.6713C4.94613 23.6713 2.9504 24.4723 1.72836 25.1441L1.28284 25.388C1.2 25.4342 1.13209 25.3931 1.13209 25.296V3.30138C1.13529 3.26139 1.17404 3.17378 1.19076 3.15414C1.1936 3.15196 1.44284 2.94365 2.26667 2.49103C3.37387 1.88282 5.18258 1.15754 7.51147 1.15754C10.8341 1.15754 14.1159 2.63573 15.2807 3.21922C15.3657 3.26175 15.4343 3.37554 15.4343 3.47261V25.4891H15.434Z" fill="white"/>
</svg>
