<svg width="41" height="36" viewBox="0 0 41 36" fill="none" xmlns="http://www.w3.org/2000/svg">
<path fill-rule="evenodd" clip-rule="evenodd" d="M26.1451 7.12649H36.6819C39.0626 7.12649 40.9991 9.07942 41 11.4792V23.8527C41 26.2521 39.0635 28.2041 36.6828 28.2041H35.9348C35.8405 28.2041 35.7612 28.284 35.7612 28.3791V33.8108C35.7612 34.1442 35.6929 34.4271 35.559 34.6517C35.3645 34.9783 35.0428 35.1657 34.6766 35.1657C34.3322 35.1657 33.9955 35.0022 33.6771 34.6811L27.4635 28.4168C27.3669 28.3189 27.0913 28.2037 26.9546 28.2037H20.1852C17.805 28.2037 15.868 26.2516 15.868 23.8523V21.0785H14.0458C13.9087 21.0785 13.6331 21.1934 13.537 21.2908L7.32242 27.5561C6.94344 27.9382 6.58947 28.0378 6.32389 28.0378C6.1526 28.0378 6.01684 27.996 5.9353 27.9625C5.72574 27.8753 5.23875 27.5749 5.23875 26.6848V21.2531C5.23875 21.1585 5.15949 21.079 5.06614 21.079H4.3172C1.93698 21.079 0 19.1261 0 16.7263V4.35322C0 1.95385 1.93698 0.000459296 4.3172 0H21.8274C24.2077 0 26.1451 1.95339 26.1451 4.35322V7.12649ZM15.8675 11.4792V19.6171H14.0454C13.5233 19.6171 12.8778 19.8872 12.5106 20.2583L6.68879 26.1281V21.2531C6.68879 20.3506 5.96035 19.6166 5.06569 19.6166H4.31675C2.73555 19.6166 1.45 18.3205 1.45 16.7263V4.35322C1.45 2.759 2.73555 1.46287 4.31675 1.46287H21.827C23.4078 1.46287 24.6938 2.759 24.6938 4.35322V7.12649H20.1843C17.8045 7.12649 15.8675 9.07942 15.8675 11.4792ZM36.6819 26.7417C38.2631 26.7417 39.5486 25.4456 39.5486 23.8527L39.5491 11.4792C39.5491 9.88549 38.2635 8.58888 36.6823 8.58888H20.1848C18.6036 8.58888 17.3185 9.88549 17.3185 11.4792V23.8532C17.3185 25.446 18.6036 26.7422 20.1848 26.7422H26.9542C27.4753 26.7422 28.1208 27.0118 28.4894 27.3843L34.3098 33.2523V28.3786C34.3098 27.4766 35.0383 26.7417 35.9339 26.7417H36.6819Z" fill="white"/>
</svg>
