<svg width="30" height="25" viewBox="0 0 30 25" fill="none" xmlns="http://www.w3.org/2000/svg">
<path fill-rule="evenodd" clip-rule="evenodd" d="M18.9596 4.9468H26.4526C28.1455 4.9468 29.5226 6.30241 29.5233 7.96822V16.5572C29.5233 18.2227 28.1462 19.5777 26.4532 19.5777H25.9213C25.8542 19.5777 25.7979 19.6332 25.7979 19.6992V23.4695C25.7979 23.7009 25.7493 23.8973 25.654 24.0532C25.5157 24.2799 25.287 24.41 25.0265 24.41H25.0262C24.7813 24.41 24.5422 24.2965 24.3158 24.0736L19.8971 19.7253C19.8285 19.6574 19.6325 19.5774 19.5353 19.5774H14.7214C13.0287 19.5774 11.6513 18.2224 11.6513 16.5569V14.6315H10.3555C10.258 14.6315 10.062 14.7112 9.99366 14.7788L5.57434 19.1278C5.30484 19.3931 5.05312 19.4623 4.86426 19.4623C4.74245 19.4623 4.64591 19.4332 4.58792 19.41C4.4389 19.3494 4.09259 19.1409 4.09259 18.523V14.7527C4.09259 14.687 4.03622 14.6318 3.96985 14.6318H3.43726C1.74462 14.6318 0.367188 13.2762 0.367188 11.6104V3.02176C0.367188 1.35625 1.74462 0.000318817 3.43726 0H15.8892C17.5819 0 18.9596 1.35593 18.9596 3.02176V4.9468ZM11.651 7.96822V13.617H10.3552C9.98394 13.617 9.52493 13.8045 9.26382 14.0621L5.12375 18.1366V14.7527C5.12375 14.1262 4.60574 13.6167 3.96952 13.6167H3.43693C2.31251 13.6167 1.39832 12.717 1.39832 11.6104V3.02176C1.39832 1.91514 2.31251 1.01544 3.43693 1.01544H15.8889C17.013 1.01544 17.9275 1.91514 17.9275 3.02176V4.9468H14.7207C13.0284 4.9468 11.651 6.30241 11.651 7.96822ZM26.4526 18.5626C27.577 18.5626 28.4912 17.6629 28.4912 16.5572H28.4915V7.96822C28.4915 6.86194 27.5773 5.9619 26.4529 5.9619H14.7211C13.5966 5.9619 12.6828 6.86194 12.6828 7.96822V16.5575C12.6828 17.6632 13.5966 18.5629 14.7211 18.5629H19.535C19.9056 18.5629 20.3646 18.75 20.6267 19.0086L24.7658 23.0818V19.6988C24.7658 19.0727 25.2838 18.5626 25.9206 18.5626H26.4526Z" fill="#7A7A7A"/>
</svg>
