<svg width="27" height="25" viewBox="0 0 27 25" fill="none" xmlns="http://www.w3.org/2000/svg">
<path fill-rule="evenodd" clip-rule="evenodd" d="M15.0285 0.526409L25.8971 8.8318C26.3883 9.20719 26.759 9.95179 26.759 10.5632V11.6902C26.759 12.4127 26.1608 13.0007 25.4252 13.0007H23.561C23.3475 13.0007 23.1739 13.1713 23.1739 13.3808V21.1571C23.1739 22.9671 21.6748 24.44 19.8323 24.44H6.92642C5.08421 24.44 3.58511 22.9671 3.58511 21.1571V13.3808C3.58511 13.1713 3.41148 13.0007 3.198 13.0007H1.33379C0.598213 13.0007 0 12.413 0 11.6902V10.5632C0 9.95179 0.370761 9.20719 0.861938 8.8318L11.7306 0.526409C12.1748 0.187252 12.7599 0 13.3795 0C13.9985 0 14.5846 0.187252 15.0285 0.526409ZM25.4249 12.0711C25.6387 12.0711 25.8123 11.9003 25.8123 11.6905V10.5632C25.8123 10.2395 25.5754 9.76454 25.3161 9.5659L14.4472 1.26023C14.1725 1.05048 13.7833 0.930125 13.3792 0.930125C12.9752 0.930125 12.586 1.05048 12.3115 1.26023L1.44261 9.5659C1.18245 9.76454 0.94608 10.2395 0.94608 10.5632V11.6902C0.94608 11.9 1.11972 12.0709 1.33319 12.0709H3.19741C3.93298 12.0709 4.53119 12.658 4.53119 13.3808V21.1571C4.53119 22.4544 5.60572 23.5099 6.92583 23.5099H9.60738V18.0577C9.60738 16.014 11.2991 14.3518 13.3789 14.3518C15.4587 14.3518 17.1505 16.0143 17.1505 18.0577V23.5102H19.832C21.153 23.5102 22.2269 22.4544 22.2269 21.1574V13.381C22.2269 12.6586 22.8251 12.0711 23.5607 12.0711H25.4249ZM10.5547 23.5099V18.0577C10.5547 16.5269 11.8218 15.2822 13.3795 15.2822C14.9372 15.2822 16.2044 16.5269 16.2044 18.0577V23.5099H10.5547Z" fill="#7A7A7A"/>
</svg>
