<svg width="38" height="36" viewBox="0 0 38 36" fill="none" xmlns="http://www.w3.org/2000/svg">
<path fill-rule="evenodd" clip-rule="evenodd" d="M21.2825 0.775397L36.6741 13.0092C37.3697 13.5621 37.8947 14.6589 37.8947 15.5596V17.2197C37.8947 18.2838 37.0476 19.15 36.0059 19.15H33.3659C33.0636 19.15 32.8177 19.4013 32.8177 19.7098V31.1643C32.8177 33.8304 30.6947 36 28.0855 36H9.80884C7.2 36 5.07705 33.8304 5.07705 31.1643V19.7098C5.07705 19.4013 4.83116 19.15 4.52884 19.15H1.88884C0.847158 19.15 0 18.2842 0 17.2197V15.5596C0 14.6589 0.525053 13.5621 1.22063 13.0092L16.6122 0.775397C17.2413 0.275821 18.0699 0 18.9474 0C19.824 0 20.6539 0.275821 21.2825 0.775397ZM36.0055 17.7807C36.3082 17.7807 36.5541 17.529 36.5541 17.2201V15.5596C36.5541 15.0828 36.2185 14.3831 35.8514 14.0905L20.4594 1.85631C20.0703 1.54735 19.5192 1.37007 18.9469 1.37007C18.3747 1.37007 17.8236 1.54735 17.4349 1.85631L2.04295 14.0905C1.67453 14.3831 1.33979 15.0828 1.33979 15.5596V17.2197C1.33979 17.5286 1.58568 17.7803 1.888 17.7803H4.528C5.56968 17.7803 6.41684 18.6452 6.41684 19.7098V31.1643C6.41684 33.0753 7.93853 34.6299 9.808 34.6299H13.6055V26.5989C13.6055 23.5885 16.0013 21.1401 18.9465 21.1401C21.8918 21.1401 24.2876 23.5889 24.2876 26.5989V34.6304H28.0851C29.9558 34.6304 31.4766 33.0753 31.4766 31.1647V19.7102C31.4766 18.6461 32.3238 17.7807 33.3655 17.7807H36.0055ZM14.9469 34.6299V26.5989C14.9469 24.3441 16.7415 22.5106 18.9474 22.5106C21.1533 22.5106 22.9478 24.3441 22.9478 26.5989V34.6299H14.9469Z" fill="white"/>
</svg>
