<svg width="38" height="28" viewBox="0 0 38 28" fill="none" xmlns="http://www.w3.org/2000/svg">
<path fill-rule="evenodd" clip-rule="evenodd" d="M5.15498 0.601807H32.9134C35.4605 0.601807 37.5332 2.68338 37.5332 5.2418V23.1618C37.5332 25.7202 35.4605 27.8018 32.913 27.8018H5.15498C2.60787 27.8018 0.535156 25.7202 0.535156 23.1618V5.2418C0.535156 2.68338 2.60787 0.601807 5.15498 0.601807ZM5.15498 1.9159H32.913C33.565 1.9159 34.1713 2.10828 34.684 2.4365L21.4683 14.9718C20.1256 16.2446 17.9423 16.2446 16.6005 14.9718L3.38442 2.4365C3.89705 2.10828 4.50341 1.9159 5.15498 1.9159ZM32.913 26.4873C34.7395 26.4873 36.2243 24.9953 36.2243 23.1618H36.2239V5.2418C36.2239 4.53706 36.0036 3.88518 35.6303 3.34641L22.3657 15.9271C21.4477 16.7986 20.2403 17.2346 19.0338 17.2346C17.8272 17.2346 16.6203 16.7986 15.7023 15.9271L2.43727 3.34641C2.064 3.88476 1.84365 4.53706 1.84365 5.2418V23.1618C1.84365 24.9957 3.32933 26.4873 5.15498 26.4873H32.913Z" fill="white"/>
</svg>
