<svg width="29" height="21" viewBox="0 0 29 21" fill="none" xmlns="http://www.w3.org/2000/svg">
<path fill-rule="evenodd" clip-rule="evenodd" d="M3.51125 0H24.6087C26.5447 0 28.12 1.58208 28.12 3.52657V17.1465C28.12 19.091 26.5447 20.6731 24.6084 20.6731H3.51125C1.57534 20.6731 0 19.091 0 17.1465V3.52657C0 1.58208 1.57534 0 3.51125 0ZM3.51125 0.998759H24.6084C25.104 0.998759 25.5648 1.14498 25.9544 1.39444L15.91 10.9217C14.8895 11.8891 13.2301 11.8891 12.2103 10.9217L2.16555 1.39444C2.55517 1.14498 3.01603 0.998759 3.51125 0.998759ZM24.6084 19.674C25.9966 19.674 27.1252 18.54 27.1252 17.1465H27.1249V3.52657C27.1249 2.99095 26.9574 2.49549 26.6737 2.08601L16.5921 11.6478C15.8944 12.3102 14.9767 12.6415 14.0597 12.6415C13.1427 12.6415 12.2253 12.3102 11.5276 11.6478L1.44568 2.08601C1.16198 2.49518 0.994511 2.99095 0.994511 3.52657V17.1465C0.994511 18.5403 2.12368 19.674 3.51125 19.674H24.6084Z" fill="#7A7A7A"/>
</svg>
