<svg width="58" height="56" viewBox="0 0 58 56" fill="none" xmlns="http://www.w3.org/2000/svg">
<ellipse cx="28.9993" cy="28" rx="28.2571" ry="28" fill="#F5F7FA"/>
<path fill-rule="evenodd" clip-rule="evenodd" d="M12.7422 25.9849C12.7422 18.2733 20.0344 12 28.9977 12C37.961 12 45.2532 18.2733 45.2536 25.9849C45.2536 33.6951 37.9614 39.9684 28.9981 39.9684C27.1861 39.9684 24.9324 39.4811 24.8374 39.46C24.7547 39.4424 24.6521 39.4323 24.5415 39.4323C24.1384 39.4323 23.6558 39.5597 23.3957 39.7341L17.897 43.4234C17.5986 43.6233 17.3104 43.7245 17.0398 43.7245C16.7512 43.7245 16.4943 43.6086 16.3166 43.3972C16.1595 43.2092 15.9944 42.8597 16.1049 42.2604L17.1594 36.5199C17.2305 36.1292 16.9733 35.3799 16.5214 34.9608C16.4871 34.9292 16.2899 34.7393 15.7787 34.1264C13.7919 31.7426 12.7422 28.9275 12.7422 25.9849ZM25.0837 38.3443C25.1061 38.3493 27.3129 38.8259 28.9977 38.8259C37.327 38.8259 44.1031 33.0653 44.1031 25.9846C44.1031 18.9028 37.327 13.1422 28.9977 13.1422C20.6684 13.1422 13.8924 18.9028 13.892 25.9849C13.892 28.6583 14.8507 31.2212 16.6645 33.3976C17.1319 33.9578 17.3075 34.1268 17.3093 34.129C18.018 34.7856 18.4407 35.9024 18.29 36.7241L17.2356 42.4649C17.2338 42.4736 17.2323 42.4822 17.2309 42.4904C17.2381 42.4858 17.2453 42.4811 17.2529 42.4761L22.7513 38.7871C23.3401 38.3924 24.3797 38.19 25.0837 38.3443Z" fill="#A78EC3" stroke="#A78EC3"/>
<path d="M29.5008 28.7135C30.7407 28.7135 31.7458 27.7151 31.7458 26.4835C31.7458 25.2519 30.7407 24.2535 29.5008 24.2535C28.261 24.2535 27.2559 25.2519 27.2559 26.4835C27.2559 27.7151 28.261 28.7135 29.5008 28.7135Z" fill="#A78EC3"/>
<path d="M36.2957 28.7135C37.5356 28.7135 38.5407 27.7151 38.5407 26.4835C38.5407 25.2519 37.5356 24.2535 36.2957 24.2535C35.0559 24.2535 34.0508 25.2519 34.0508 26.4835C34.0508 27.7151 35.0559 28.7135 36.2957 28.7135Z" fill="#A78EC3"/>
<path d="M22.7059 28.7135C23.9458 28.7135 24.9509 27.7151 24.9509 26.4835C24.9509 25.2519 23.9458 24.2535 22.7059 24.2535C21.466 24.2535 20.4609 25.2519 20.4609 26.4835C20.4609 27.7151 21.466 28.7135 22.7059 28.7135Z" fill="#A78EC3"/>
</svg>
