<svg width="57" height="56" viewBox="0 0 57 56" fill="none" xmlns="http://www.w3.org/2000/svg">
<ellipse cx="28.5129" cy="28" rx="28.2571" ry="28" fill="#F5F7FA"/>
<path fill-rule="evenodd" clip-rule="evenodd" d="M13.375 38.7124V37.328C13.375 36.4964 13.8745 35.4968 14.367 34.9396C14.8803 34.36 15.6088 33.3768 16.1663 31.986C16.7184 30.6084 16.9974 29.0952 16.9974 27.4892C16.9974 22.8208 19.9066 18.626 24.279 16.9212C23.9169 16.2448 23.7268 15.4924 23.7268 14.722C23.7268 12.1184 25.8735 10 28.5127 10C31.152 10 33.2986 12.1184 33.2986 14.7216C33.2986 15.492 33.1089 16.2444 32.7464 16.9208C37.1192 18.6256 40.0281 22.8204 40.0281 27.4888C40.0281 29.0944 40.3074 30.608 40.8592 31.9856C41.4166 33.3764 42.1447 34.3596 42.6584 34.9392C43.1514 35.4968 43.6504 36.4964 43.6504 37.328V38.7124C43.6504 39.9148 42.6985 40.8924 41.5273 40.8924H34.767C34.7638 40.8956 34.7366 40.9236 34.7309 40.9508C34.1512 43.876 31.5359 46 28.5127 46C25.4895 46 22.8742 43.876 22.2941 40.9504C22.2888 40.9232 22.2612 40.8956 22.2483 40.8912L15.563 40.8924C14.3565 40.8924 13.375 39.9148 13.375 38.7124ZM15.34 35.776C14.9748 36.1892 14.6658 36.9004 14.6658 37.328V38.7124C14.6658 39.2128 15.0684 39.6192 15.5634 39.6192H22.2584C22.8787 39.6192 23.4386 40.0872 23.561 40.7076C24.0228 43.036 26.1054 44.7264 28.5127 44.7264C30.9201 44.7264 33.0027 43.036 33.4645 40.7068C33.5869 40.0872 34.1467 39.6192 34.767 39.6192H41.5261C41.9854 39.6192 42.3588 39.2128 42.3588 38.7124V37.328C42.3588 36.9004 42.0499 36.1892 41.6846 35.776C41.1052 35.1212 40.2823 34.0128 39.6579 32.4536C39.0466 30.926 38.736 29.256 38.736 27.4888C38.736 23.218 35.9954 19.3944 31.9158 17.9736C31.6336 17.876 31.4195 17.6692 31.3295 17.4064C31.2371 17.1412 31.2805 16.8444 31.4463 16.5916C31.8132 16.0328 32.0074 15.3864 32.0074 14.7216C32.0074 12.8196 30.4397 11.2732 28.5123 11.2732C26.585 11.2732 25.0172 12.8196 25.0172 14.7216C25.0172 15.3864 25.2114 16.034 25.5783 16.5916C25.7442 16.8444 25.7875 17.1412 25.6951 17.4064C25.6055 17.6692 25.391 17.876 25.1085 17.9744C21.0296 19.3944 18.2886 23.218 18.2886 27.4888C18.2886 29.256 17.9785 30.926 17.3667 32.4536C16.7424 34.0132 15.9194 35.1212 15.34 35.776Z" fill="#A78EC3" stroke="#A78EC3"/>
</svg>
