<svg width="33" height="35" viewBox="0 0 33 35" fill="none" xmlns="http://www.w3.org/2000/svg">
<path fill-rule="evenodd" clip-rule="evenodd" d="M16.363 0C21.2309 0 25.1912 3.97022 25.1912 8.85027C25.1912 13.7296 21.2309 17.6998 16.363 17.6998C11.4952 17.6998 7.53491 13.7296 7.53491 8.85027C7.53491 3.97022 11.4952 0 16.363 0ZM16.363 1.20957C12.1606 1.20957 8.74221 4.6373 8.74221 8.85027C8.74221 13.0625 12.1606 16.4902 16.363 16.4902C20.5655 16.4902 23.9839 13.0625 23.9839 8.85027C23.9839 4.6373 20.5659 1.20957 16.363 1.20957Z" fill="white"/>
<path fill-rule="evenodd" clip-rule="evenodd" d="M3.93452 34.1898C2.00117 34.1898 0 32.7359 0 30.3047C0 27.7362 2.93981 21.0703 16.3629 21.0703C29.7861 21.0703 32.7259 27.7358 32.7259 30.3047C32.7259 32.7359 30.7251 34.1898 28.7914 34.1898H3.93452ZM31.519 30.3047C31.519 28.2229 28.7345 22.2803 16.3629 22.2803C3.99136 22.2803 1.20692 28.2229 1.20692 30.3047C1.20692 32.0423 2.6124 32.9802 3.93452 32.9802H28.7914C30.1135 32.9802 31.519 32.0423 31.519 30.3047Z" fill="white"/>
</svg>
