<svg width="26" height="27" viewBox="0 0 26 27" fill="none" xmlns="http://www.w3.org/2000/svg">
<path fill-rule="evenodd" clip-rule="evenodd" d="M13.3516 0.792969C17.0801 0.792969 20.1135 3.83397 20.1135 7.57187C20.1135 11.3092 17.0801 14.3502 13.3516 14.3502C9.62306 14.3502 6.58966 11.3092 6.58966 7.57187C6.58966 3.83397 9.62306 0.792969 13.3516 0.792969ZM13.3516 1.71944C10.1327 1.71944 7.5144 4.34493 7.5144 7.57187C7.5144 10.7982 10.1327 13.4237 13.3516 13.4237C16.5705 13.4237 19.1888 10.7982 19.1888 7.57187C19.1888 4.34493 16.5708 1.71944 13.3516 1.71944Z" fill="#7A7A7A"/>
<path fill-rule="evenodd" clip-rule="evenodd" d="M3.83202 26.9805C2.35117 26.9805 0.818359 25.867 0.818359 24.0047C0.818359 22.0374 3.07011 16.9316 13.3516 16.9316C23.6331 16.9316 25.8849 22.0371 25.8849 24.0047C25.8849 25.867 24.3524 26.9805 22.8712 26.9805H3.83202ZM24.9604 24.0047C24.9604 22.4102 22.8277 17.8584 13.3516 17.8584C3.87556 17.8584 1.7428 22.4102 1.7428 24.0047C1.7428 25.3356 2.81934 26.0541 3.83202 26.0541H22.8712C23.8839 26.0541 24.9604 25.3356 24.9604 24.0047Z" fill="#7A7A7A"/>
</svg>
