<svg width="40" height="27" viewBox="0 0 40 27" fill="none" xmlns="http://www.w3.org/2000/svg">
<path fill-rule="evenodd" clip-rule="evenodd" d="M23.6849 11.0576C25.4343 11.0576 26.3214 11.8786 26.3214 13.498C26.3214 14.5476 25.9056 15.3203 25.1884 15.6919C25.5297 16.0729 25.7117 16.6128 25.7117 17.289C25.7117 18.4052 25.2363 19.2064 24.4234 19.5408C24.7366 19.9495 24.8297 20.473 24.8297 20.9508C24.8297 22.0904 24.3247 22.8719 23.4427 23.1628C23.6759 23.5777 23.6762 24.0507 23.6762 24.2849C23.6762 25.5998 22.5193 26.3849 20.5816 26.3849C16.1023 26.3849 12.411 25.9864 9.60337 25.2033C9.13408 25.9141 8.33027 26.3849 7.4187 26.3849H3.61936C2.1752 26.3849 1 25.2061 1 23.7577V15.1823C1 13.7339 2.1752 12.5551 3.61936 12.5551H7.4187C8.43127 12.5551 9.30964 13.1359 9.74545 13.9811C10.8759 11.8727 11.922 10.5096 12.786 9.38551C14.1522 7.60808 14.9771 6.53481 14.9771 4.02024V1.97925C14.9771 1.41989 15.44 0.966652 15.9942 1.00193C17.7861 1.10861 19.0578 1.73852 19.775 2.8736C21.0478 4.88891 20.2533 7.96311 19.3628 10.187C19.2539 10.4593 19.2477 10.6995 19.3462 10.8457C19.4382 10.9823 19.6357 11.0576 19.903 11.0576H23.6849ZM23.4812 15.0392H24.0923C25.1946 15.0392 25.4256 14.201 25.4262 13.4977C25.4262 12.5455 25.1347 11.9556 23.6852 11.9556H19.9033C19.3293 11.9556 18.8685 11.7403 18.6046 11.3483C18.3328 10.945 18.3066 10.4136 18.5317 9.852C19.1968 8.19058 20.1444 5.13726 19.0184 3.35421C18.4639 2.47708 17.4285 1.98687 15.941 1.89854C15.9025 1.89854 15.8727 1.93522 15.8727 1.97897V4.01996C15.8727 6.84073 14.8756 8.13837 13.495 9.93385C12.5266 11.1945 11.3238 12.7586 10.0378 15.3708V23.7577C10.0378 23.7625 10.0369 23.7673 10.0367 23.7721V24.3924C12.7421 25.1183 16.2868 25.486 20.5813 25.486C21.2422 25.486 22.7801 25.3692 22.7801 24.2846C22.7801 23.7501 22.7801 23.2887 21.8024 23.2887C21.5551 23.2887 21.3545 23.0872 21.3545 22.8394C21.3545 22.591 21.5551 22.3901 21.8024 22.3901H22.5997C23.497 22.3901 23.9333 21.9191 23.9333 20.9505C23.9333 20.0494 23.5718 19.715 22.5997 19.715C22.3524 19.715 22.1518 19.5135 22.1518 19.2654C22.1518 19.0173 22.3524 18.8161 22.5997 18.8161H23.4812C24.5841 18.8161 24.8154 17.9849 24.8154 17.2884C24.8154 16.3419 24.4164 15.938 23.4812 15.938C23.2339 15.938 23.0333 15.7365 23.0333 15.4887C23.0333 15.2404 23.2339 15.0392 23.4812 15.0392ZM9.14168 15.2664L9.14112 23.771C9.1338 24.7181 8.36403 25.4857 7.41842 25.4857H3.61936C2.66868 25.4857 1.89582 24.7099 1.89582 23.7574V15.182C1.89582 14.2286 2.66868 13.4531 3.61936 13.4531H7.4187C8.36909 13.4531 9.14196 14.2286 9.14196 15.182L9.14168 15.2664Z" fill="white" stroke="white" stroke-width="0.25"/>
<path d="M23.8433 9.88719V4.28675C23.8433 3.31798 24.6152 2.52959 25.5637 2.52959H36.535C37.4835 2.52959 38.2553 3.31798 38.2553 4.28675V11.2465C38.2553 12.2153 37.4835 13.0032 36.535 13.0032H36.1193C35.693 13.0032 35.3463 13.3574 35.3463 13.7926V16.8507L35.3446 16.8488L31.8939 13.3252C31.714 13.1418 31.3869 13.0033 31.1324 13.0033H27.3362C27.3362 13.2077 27.3362 13.5638 27.3362 13.5638H31.1324C31.2429 13.5638 31.4278 13.642 31.506 13.7215L34.9563 17.2451C35.1083 17.4003 35.2644 17.4788 35.4206 17.4788C35.5777 17.4788 35.7163 17.3968 35.8007 17.2537C35.8631 17.148 35.8948 17.0118 35.8948 16.8481V13.7928C35.8948 13.6664 35.9954 13.5636 36.1192 13.5636H36.5348C37.7861 13.5636 38.804 12.524 38.804 11.2465V4.28657C38.804 3.00878 37.7861 1.96945 36.535 1.96945H25.5637C24.3124 1.96945 23.2946 3.00878 23.2946 4.28675V9.88719H23.8433Z" fill="white"/>
<path fill-rule="evenodd" clip-rule="evenodd" d="M35.0204 16.052V13.7926C35.0204 13.1839 35.5066 12.6773 36.1193 12.6773H36.535C37.2971 12.6773 37.9294 12.0417 37.9294 11.2465V4.28675C37.9294 3.49142 37.297 2.85549 36.535 2.85549H25.5637C24.8016 2.85549 24.1692 3.49142 24.1692 4.28675V10.2131H22.9688V4.28675C22.9688 2.83529 24.126 1.64355 25.5637 1.64355H36.535C37.9725 1.64355 39.1299 2.83526 39.1299 4.28657V11.2465C39.1299 12.6975 37.9725 13.8895 36.5348 13.8895H36.2207V16.8481C36.2207 17.0515 36.1815 17.2496 36.0814 17.4193C35.9424 17.6548 35.7008 17.8047 35.4206 17.8047C35.1473 17.8047 34.9124 17.6661 34.7235 17.4731L31.2754 13.9518C31.2744 13.951 31.2695 13.9471 31.2593 13.9408C31.2448 13.9319 31.2259 13.9221 31.2045 13.9131C31.1831 13.904 31.163 13.8974 31.1469 13.8933C31.1365 13.8907 31.1307 13.8899 31.1292 13.8897H27.0103V12.6774H31.1324C31.3136 12.6774 31.5026 12.7254 31.6681 12.7953C31.8337 12.8654 31.9996 12.9676 32.1265 13.097L35.0204 16.052Z" fill="white"/>
<path d="M34.9563 17.2451L31.506 13.7215C31.4278 13.642 31.2429 13.5638 31.1324 13.5638H27.3362C27.3362 13.5638 27.3362 13.2077 27.3362 13.0033H31.1324C31.3869 13.0033 31.714 13.1418 31.8939 13.3252L35.3446 16.8488L35.3463 16.8507V13.7926C35.3463 13.3574 35.693 13.0032 36.1193 13.0032H36.535C37.4835 13.0032 38.2553 12.2153 38.2553 11.2465V4.28675C38.2553 3.31798 37.4835 2.52959 36.535 2.52959H25.5637C24.6152 2.52959 23.8433 3.31798 23.8433 4.28675V9.88719H23.2946V4.28675C23.2946 3.00878 24.3124 1.96945 25.5637 1.96945H36.535C37.7861 1.96945 38.804 3.00878 38.804 4.28657V11.2465C38.804 12.524 37.7861 13.5636 36.5348 13.5636H36.1192C35.9954 13.5636 35.8948 13.6664 35.8948 13.7928V16.8481C35.8948 17.0118 35.8631 17.148 35.8007 17.2537C35.7163 17.3968 35.5777 17.4788 35.4206 17.4788C35.2644 17.4788 35.1083 17.4003 34.9563 17.2451ZM34.9563 17.2451L34.7235 17.4731M34.7235 17.4731C34.9124 17.6661 35.1473 17.8047 35.4206 17.8047C35.7008 17.8047 35.9424 17.6548 36.0814 17.4193C36.1815 17.2496 36.2207 17.0516 36.2207 16.8481V13.8895H36.5348C37.9725 13.8895 39.1299 12.6975 39.1299 11.2465V4.28657C39.1299 2.83526 37.9725 1.64355 36.535 1.64355H25.5637C24.126 1.64355 22.9688 2.83529 22.9688 4.28675V10.2131H24.1692V4.28675C24.1692 3.49142 24.8016 2.85549 25.5637 2.85549H36.535C37.297 2.85549 37.9294 3.49142 37.9294 4.28675V11.2465C37.9294 12.0417 37.2971 12.6773 36.535 12.6773H36.1193C35.5066 12.6773 35.0204 13.1839 35.0204 13.7926V16.052L32.1265 13.097C31.9996 12.9676 31.8337 12.8654 31.6681 12.7953C31.5026 12.7254 31.3136 12.6774 31.1324 12.6774H27.0103V13.8897H31.1292C31.1307 13.8899 31.1365 13.8907 31.1469 13.8933C31.163 13.8974 31.1831 13.904 31.2045 13.9131C31.2259 13.9221 31.2448 13.9319 31.2593 13.9408C31.2695 13.9471 31.2744 13.951 31.2754 13.9518L34.7235 17.4731Z" stroke="white" stroke-width="0.5"/>
</svg>
