<svg width="31" height="21" viewBox="0 0 31 21" fill="none" xmlns="http://www.w3.org/2000/svg">
<path fill-rule="evenodd" clip-rule="evenodd" d="M18.8276 8.71534C20.2024 8.71534 20.8996 9.34512 20.8996 10.5874C20.8996 11.3925 20.5728 11.9853 20.0092 12.2704C20.2774 12.5626 20.4205 12.9768 20.4205 13.4955C20.4205 14.3517 20.0468 14.9664 19.408 15.2229C19.6541 15.5364 19.7273 15.938 19.7273 16.3045C19.7273 17.1787 19.3304 17.7782 18.6372 18.0014C18.8205 18.3196 18.8207 18.6825 18.8207 18.8622C18.8207 19.8708 17.9116 20.4731 16.3888 20.4731C12.8686 20.4731 9.96764 20.1674 7.76122 19.5666C7.39241 20.112 6.76071 20.4731 6.04432 20.4731H3.0585C1.92356 20.4731 1 19.5688 1 18.4577V11.8794C1 10.7683 1.92356 9.86406 3.0585 9.86406H6.04432C6.84009 9.86406 7.53038 10.3096 7.87288 10.958C8.76128 9.34058 9.58335 8.29492 10.2624 7.43263C11.3361 6.06914 11.9844 5.24582 11.9844 3.31686V1.7512C11.9844 1.32211 12.3481 0.974418 12.7837 1.00148C14.1919 1.08331 15.1913 1.56653 15.7549 2.43726C16.7552 3.98323 16.1308 6.34149 15.431 8.04746C15.3454 8.25638 15.3405 8.44062 15.4179 8.55276C15.4902 8.65753 15.6454 8.71534 15.8555 8.71534H18.8276ZM18.6675 11.7696H19.1478C20.0141 11.7696 20.1956 11.1266 20.196 10.5871C20.196 9.8567 19.967 9.40421 18.8278 9.40421H15.8557C15.4046 9.40421 15.0425 9.23904 14.8351 8.93833C14.6215 8.62897 14.6009 8.22131 14.7778 7.79048C15.3005 6.51599 16.0452 4.17374 15.1603 2.80595C14.7245 2.13309 13.9109 1.75704 12.7419 1.68928C12.7116 1.68928 12.6881 1.71742 12.6881 1.75098V3.31665C12.6881 5.48049 11.9045 6.47594 10.8196 7.85327C10.0585 8.82034 9.11328 10.0201 8.10261 12.024V18.4577C8.10261 18.4614 8.10194 18.4651 8.10172 18.4688V18.9446C10.2279 19.5015 13.0136 19.7836 16.3886 19.7836C16.908 19.7836 18.1165 19.6939 18.1165 18.8619C18.1165 18.4519 18.1165 18.0979 17.3482 18.0979C17.1538 18.0979 16.9962 17.9433 16.9962 17.7533C16.9962 17.5628 17.1538 17.4086 17.3482 17.4086H17.9748C18.6799 17.4086 19.0228 17.0473 19.0228 16.3043C19.0228 15.613 18.7387 15.3565 17.9748 15.3565C17.7804 15.3565 17.6228 15.2019 17.6228 15.0116C17.6228 14.8213 17.7804 14.6669 17.9748 14.6669H18.6675C19.5343 14.6669 19.716 14.0294 19.716 13.4951C19.716 12.769 19.4025 12.4591 18.6675 12.4591C18.4732 12.4591 18.3155 12.3046 18.3155 12.1145C18.3155 11.924 18.4732 11.7696 18.6675 11.7696ZM7.39838 11.9439L7.39794 18.4679C7.39219 19.1945 6.78724 19.7833 6.0441 19.7833H3.0585C2.31138 19.7833 1.704 19.1882 1.704 18.4575V11.8792C1.704 11.1479 2.31138 10.5529 3.0585 10.5529H6.04432C6.79122 10.5529 7.3986 11.1479 7.3986 11.8792L7.39838 11.9439Z" fill="#7A7A7A" stroke="#7A7A7A" stroke-width="0.25"/>
<path d="M18.9522 7.81696V3.52079C18.9522 2.77764 19.5588 2.17285 20.3042 2.17285H28.9263C29.6717 2.17285 30.2783 2.77764 30.2783 3.52079V8.85972C30.2783 9.60288 29.6717 10.2073 28.9263 10.2073H28.5997C28.2646 10.2073 27.9922 10.479 27.9922 10.8128V13.1588L27.9908 13.1573L25.279 10.4543C25.1376 10.3136 24.8806 10.2074 24.6805 10.2074H21.6972C21.6972 10.3642 21.6972 10.6374 21.6972 10.6374H24.6805C24.7673 10.6374 24.9127 10.6973 24.9741 10.7583L27.6857 13.4613C27.8051 13.5804 27.9278 13.6406 28.0505 13.6406C28.174 13.6406 28.2829 13.5777 28.3493 13.4679C28.3983 13.3868 28.4232 13.2823 28.4232 13.1568V10.813C28.4232 10.716 28.5023 10.6372 28.5995 10.6372H28.9262C29.9095 10.6372 30.7095 9.83967 30.7095 8.85972V3.52065C30.7095 2.54045 29.9095 1.74316 28.9263 1.74316H20.3042C19.3208 1.74316 18.521 2.54045 18.521 3.52079V7.81696H18.9522Z" fill="#7A7A7A"/>
<path fill-rule="evenodd" clip-rule="evenodd" d="M27.736 12.5461V10.8128C27.736 10.3459 28.1181 9.95726 28.5997 9.95726H28.9263C29.5253 9.95726 30.0222 9.46973 30.0222 8.85972V3.52079C30.0222 2.91069 29.5252 2.42285 28.9263 2.42285H20.3042C19.7053 2.42285 19.2083 2.91069 19.2083 3.52079V8.06696H18.2649V3.52079C18.2649 2.40736 19.1743 1.49316 20.3042 1.49316H28.9263C30.056 1.49316 30.9656 2.40733 30.9656 3.52065V8.85972C30.9656 9.97277 30.056 10.8872 28.9262 10.8872H28.6793V13.1568C28.6793 13.3128 28.6486 13.4647 28.5699 13.5949C28.4606 13.7756 28.2708 13.8906 28.0505 13.8906C27.8357 13.8906 27.6512 13.7843 27.5027 13.6362L24.7929 10.935C24.7921 10.9344 24.7883 10.9314 24.7802 10.9266C24.7689 10.9197 24.754 10.9122 24.7372 10.9053C24.7204 10.8983 24.7046 10.8932 24.692 10.8901C24.6838 10.8881 24.6792 10.8875 24.678 10.8874H21.441V9.95739H24.6805C24.823 9.95739 24.9715 9.99417 25.1015 10.0478C25.2317 10.1016 25.3621 10.18 25.4618 10.2792L27.736 12.5461Z" fill="#7A7A7A"/>
</svg>
