<svg width="39" height="37" viewBox="0 0 39 37" fill="none" xmlns="http://www.w3.org/2000/svg">
<path d="M9.26372 16.7119H10.6664C11.4184 16.7119 12.0285 16.1004 12.0285 15.3464V13.9402C12.0285 13.1863 11.4184 12.5752 10.6664 12.5752H9.26372C8.51168 12.5752 7.9021 13.1863 7.9021 13.9402V15.3464C7.90253 16.1004 8.51168 16.7119 9.26372 16.7119Z" fill="white"/>
<path d="M18.5484 16.7119H19.9519C20.704 16.7119 21.3135 16.1004 21.3135 15.3464V13.9402C21.3135 13.1863 20.704 12.5752 19.9519 12.5752H18.5484C17.7964 12.5752 17.1868 13.1863 17.1868 13.9402V15.3464C17.1872 16.1004 17.7968 16.7119 18.5484 16.7119Z" fill="white"/>
<path d="M27.833 16.7119H29.2357C29.9877 16.7119 30.5973 16.1004 30.5973 15.3464V13.9402C30.5973 13.1863 29.9877 12.5752 29.2357 12.5752H27.833C27.081 12.5752 26.4709 13.1863 26.4709 13.9402V15.3464C26.4714 16.1004 27.0814 16.7119 27.833 16.7119Z" fill="white"/>
<path d="M9.26372 23.7456H10.6664C11.4184 23.7456 12.0285 23.134 12.0285 22.3801V20.9734C12.0285 20.2195 11.4184 19.6084 10.6664 19.6084H9.26372C8.51168 19.6084 7.9021 20.2195 7.9021 20.9734V22.3801C7.90253 23.134 8.51168 23.7456 9.26372 23.7456Z" fill="white"/>
<path d="M18.5484 23.7456H19.9519C20.704 23.7456 21.3135 23.134 21.3135 22.3801V20.9734C21.3135 20.2195 20.704 19.6084 19.9519 19.6084H18.5484C17.7964 19.6084 17.1868 20.2195 17.1868 20.9734V22.3801C17.1872 23.134 17.7968 23.7456 18.5484 23.7456Z" fill="white"/>
<path d="M27.833 23.7456H29.2357C29.9877 23.7456 30.5973 23.134 30.5973 22.3801V20.9734C30.5973 20.2195 29.9877 19.6084 29.2357 19.6084H27.833C27.081 19.6084 26.4709 20.2195 26.4709 20.9734V22.3801C26.4714 23.134 27.0814 23.7456 27.833 23.7456Z" fill="white"/>
<path d="M9.26372 30.7777H10.6664C11.4184 30.7777 12.0285 30.1662 12.0285 29.4123V28.0052C12.0285 27.2513 11.4184 26.6406 10.6664 26.6406H9.26372C8.51168 26.6406 7.9021 27.2513 7.9021 28.0052V29.4123C7.90253 30.1662 8.51168 30.7777 9.26372 30.7777Z" fill="white"/>
<path d="M18.5484 30.7777H19.9519C20.704 30.7777 21.3135 30.1662 21.3135 29.4123V28.0052C21.3135 27.2513 20.704 26.6406 19.9519 26.6406H18.5484C17.7964 26.6406 17.1868 27.2513 17.1868 28.0052V29.4123C17.1872 30.1662 17.7968 30.7777 18.5484 30.7777Z" fill="white"/>
<path fill-rule="evenodd" clip-rule="evenodd" d="M4.80737 0H33.6926C36.3431 0 38.5 2.16184 38.5 4.81943V31.2941C38.5 33.9517 36.3431 36.1135 33.6922 36.1135H4.80737C2.15686 36.1135 0 33.9517 0 31.2941V4.81943C0 2.16184 2.15686 0 4.80737 0ZM1.36204 7.23858H37.1384V4.819C37.1384 2.91361 35.5928 1.36418 33.6926 1.36418H4.80779C2.90761 1.36418 1.36204 2.91404 1.36204 4.819V7.23858ZM37.138 31.2941C37.138 33.1986 35.5928 34.7485 33.6922 34.7485H4.80737C2.90761 34.7485 1.36162 33.1991 1.36162 31.2941V8.60361H37.138V31.2941Z" fill="white"/>
</svg>
