<svg width="28" height="25" viewBox="0 0 28 25" fill="none" xmlns="http://www.w3.org/2000/svg">
<path fill-rule="evenodd" clip-rule="evenodd" d="M3.70881 0H23.7871C25.6295 0 27.1287 1.46682 27.1287 3.27001V21.2332C27.1287 23.0364 25.6295 24.5032 23.7868 24.5032H3.70881C1.86643 24.5032 0.367188 23.0364 0.367188 21.2332V3.27001C0.367188 1.46682 1.86643 0 3.70881 0ZM1.31395 4.91141H26.1823V3.26972C26.1823 1.9769 25.1079 0.9256 23.7871 0.9256H3.70911C2.38828 0.9256 1.31395 1.97719 1.31395 3.26972V4.91141ZM26.182 21.2332C26.182 22.5255 25.1079 23.5771 23.7868 23.5771H3.70881C2.38828 23.5771 1.31365 22.5258 1.31365 21.2332V5.8376H26.182V21.2332Z" fill="#7A7A7A"/>
</svg>
