<svg width="28" height="31" viewBox="0 0 28 31" fill="none" xmlns="http://www.w3.org/2000/svg">
<path fill-rule="evenodd" clip-rule="evenodd" d="M21.4785 11.911C21.4785 14.9948 20.447 17.8099 18.7582 19.9269L27.6162 30.0519C27.806 30.2689 27.806 30.6203 27.6162 30.8372C27.4263 31.0542 27.1189 31.0542 26.9291 30.8372L18.0709 20.7122C16.2184 22.6425 13.7564 23.8216 11.0575 23.8216C5.31159 23.8216 0.636719 18.4782 0.636719 11.9106C0.636719 5.34306 5.31159 -0.000344431 11.0575 1.6652e-08C16.8037 1.6652e-08 21.4785 5.3434 21.4785 11.911ZM1.60858 11.911C1.60858 17.8661 5.8471 22.7111 11.0578 22.7111C16.2679 22.7111 20.507 17.8657 20.507 11.911C20.507 5.95513 16.2682 1.11015 11.0578 1.11015C5.8471 1.11015 1.60858 5.95513 1.60858 11.911Z" fill="#A78EC3"/>
</svg>
