<svg width="39" height="42" viewBox="0 0 39 42" fill="none" xmlns="http://www.w3.org/2000/svg">
<path fill-rule="evenodd" clip-rule="evenodd" d="M11.2417 20.9999C11.2417 16.534 14.8123 12.9002 19.1997 12.9002C23.5871 12.9002 27.1576 16.534 27.1576 20.9999C27.1576 25.4659 23.5871 29.0992 19.1997 29.0992C14.8123 29.0992 11.2417 25.4659 11.2417 20.9999ZM12.6895 20.9999C12.6895 24.6531 15.61 27.6263 19.1997 27.6263C22.7893 27.6263 25.7099 24.6531 25.7099 20.9999C25.7099 17.3463 22.7893 14.3736 19.1997 14.3736C15.61 14.3736 12.6895 17.3463 12.6895 20.9999Z" fill="white"/>
<path fill-rule="evenodd" clip-rule="evenodd" d="M36.9431 16.577L34.5603 17.9768C34.2358 18.1674 33.9844 18.704 34.044 19.0806C34.0494 19.1139 34.174 19.9109 34.174 20.9994C34.174 22.0866 34.0503 22.8841 34.0444 22.9174C33.9849 23.2944 34.2362 23.8306 34.5608 24.0212L36.9427 25.421C37.615 25.8156 38.0973 26.4563 38.2991 27.2242C38.5005 27.9908 38.3982 28.7901 38.01 29.4743L35.8176 33.3389C35.4299 34.0226 34.8008 34.5139 34.0467 34.7193C33.2935 34.9243 32.5071 34.8202 31.8348 34.4246L29.4534 33.0257C29.1293 32.8351 28.5461 32.8819 28.2552 33.1224C28.2292 33.1446 27.5988 33.6632 26.6883 34.1984C25.7887 34.7281 25.0223 35.0288 24.9905 35.0408C24.64 35.1778 24.3087 35.6686 24.3087 36.0502V38.8481C24.3087 40.4838 23.0005 41.8157 21.3927 41.8157H17.008C15.4002 41.8157 14.092 40.4838 14.092 38.8481V36.0502C14.092 35.6681 13.7606 35.1778 13.4102 35.0408C13.3783 35.0288 12.6129 34.7286 11.7128 34.1984C10.8028 33.6632 10.1728 33.1446 10.146 33.1224C9.85552 32.8819 9.27323 32.8342 8.94867 33.0257L6.56588 34.4256C5.17265 35.2425 3.38669 34.7559 2.58212 33.3394L0.389779 29.4748C0.00158575 28.7911 -0.10069 27.9903 0.101134 27.2238C0.302958 26.4558 0.784337 25.8156 1.45663 25.4205L3.83988 24.0207C4.16398 23.8301 4.41535 23.293 4.35581 22.9169C4.35035 22.8836 4.22626 22.0866 4.22626 20.999C4.22626 19.9114 4.35035 19.1134 4.35581 19.0801C4.41581 18.7035 4.16444 18.1669 3.83988 17.9763L1.45663 16.576C0.784791 16.181 0.302958 15.5412 0.101134 14.7733C-0.10069 14.0067 0.00158575 13.2069 0.389779 12.5227L2.58212 8.6581C2.97031 7.97438 3.59942 7.48355 4.35308 7.27816C5.10765 7.07323 5.89267 7.17685 6.56497 7.57191L8.94913 8.97268C9.27459 9.16373 9.85643 9.11654 10.1473 8.87553C10.1733 8.85379 10.8028 8.33567 11.7128 7.8009C12.6124 7.27168 13.3779 6.97099 13.4097 6.9585C13.7602 6.82157 14.0916 6.33075 14.0916 5.9491V3.14942C14.0916 1.51273 15.3998 0.181824 17.0075 0.181824H21.3922C23 0.181824 24.3082 1.51273 24.3087 3.14989V5.94864C24.3087 6.33167 24.64 6.82157 24.9905 6.9585C25.0223 6.97099 25.7878 7.27076 26.6874 7.8009C27.5974 8.33567 28.227 8.85379 28.2538 8.87599C28.5452 9.11701 29.1274 9.16373 29.4515 8.97268L31.8348 7.57284C32.5071 7.17731 33.2939 7.07369 34.0467 7.27862C34.8008 7.48402 35.4295 7.97484 35.8176 8.65903L38.01 12.5236C38.3986 13.2073 38.5005 14.0072 38.2991 14.7746C38.0973 15.5416 37.6154 16.1814 36.9431 16.577ZM32.7266 20.9994C32.7266 20.0363 32.6166 19.3206 32.6162 19.3132C32.4621 18.3413 32.9985 17.1936 33.8367 16.7014L36.2177 15.3011C36.5554 15.1031 36.7972 14.7802 36.8995 14.3925C37.0018 14.0058 36.9504 13.6029 36.7554 13.2587L34.5631 9.39411C34.3681 9.05085 34.0517 8.80475 33.6708 8.70113C33.2885 8.59658 32.8939 8.64885 32.5566 8.84777L30.1734 10.2471C29.3365 10.7398 28.0901 10.639 27.3401 10.0182C27.3347 10.0131 26.7669 9.54815 25.9624 9.07491C25.1664 8.60722 24.4773 8.33521 24.47 8.33243C23.5677 7.98039 22.86 6.93306 22.86 5.94817V3.14942C22.86 2.32506 22.2013 1.65429 21.3913 1.65429H17.0066C16.1966 1.65429 15.538 2.32506 15.538 3.14942V5.9491C15.538 6.93398 14.8302 7.98039 13.9275 8.3329C13.9215 8.33475 13.232 8.60722 12.4365 9.07537C11.6315 9.54908 11.0642 10.0135 11.0583 10.0186C10.3078 10.6394 9.06368 10.7398 8.22502 10.2471L5.84085 8.84638C5.50357 8.64931 5.10765 8.59658 4.72764 8.70066C4.34626 8.80429 4.02989 9.05085 3.83488 9.39411L1.64254 13.2587C1.44799 13.6029 1.39617 14.0053 1.49845 14.3925C1.60027 14.7802 1.84255 15.1031 2.17983 15.3011L2.95232 15.7551C2.95112 15.7543 2.95031 15.7535 2.95031 15.7535C2.95031 15.7535 3.09213 15.8368 4.56309 16.7014C5.40175 17.1936 5.93813 18.3413 5.78403 19.3142C5.78313 19.3202 5.67358 20.0363 5.67358 20.9994C5.67358 21.9621 5.78313 22.6778 5.78403 22.6847C5.93722 23.6562 5.4013 24.8043 4.56309 25.2966L2.95531 26.2426L2.95395 26.2403C2.84258 26.3097 2.62894 26.4346 2.18211 26.6964C1.84482 26.8953 1.60254 27.2178 1.50072 27.6059C1.39845 27.9926 1.44981 28.3955 1.64482 28.7397L3.83715 32.6043C4.24171 33.3172 5.14129 33.5633 5.84404 33.1506C6.24405 32.9161 6.47451 32.7815 6.62088 32.7038L6.61724 32.6964L8.22638 31.7517C9.06231 31.2581 10.3083 31.3594 11.0596 31.9798C11.0646 31.9853 11.6328 32.4512 12.4374 32.924C13.2402 33.3963 13.9225 33.6637 13.9297 33.6664C14.8329 34.0189 15.5402 35.0667 15.5402 36.0507V38.8485C15.5402 39.6729 16.1989 40.3432 17.0089 40.3432H21.3936C22.2036 40.3432 22.8623 39.6729 22.8623 38.8485V36.0507C22.8623 35.0667 23.57 34.0194 24.4728 33.6669C24.4791 33.6651 25.1692 33.3921 25.9655 32.924C26.7701 32.4512 27.3383 31.9853 27.3438 31.9798C28.0947 31.3594 29.3402 31.2586 30.1775 31.7517L32.5585 33.1502C32.8967 33.3486 33.2926 33.4014 33.6726 33.2973C34.0535 33.1927 34.3699 32.9471 34.5653 32.6029L36.7577 28.7383C36.9522 28.3951 37.004 27.9921 36.9018 27.6054C36.7995 27.2173 36.5577 26.8949 36.2199 26.6959L33.8376 25.2966C32.9994 24.8043 32.4626 23.6566 32.6162 22.6838C32.6171 22.6778 32.7266 21.9626 32.7266 20.9994Z" fill="white"/>
</svg>
