<svg width="26" height="27" viewBox="0 0 26 27" fill="none" xmlns="http://www.w3.org/2000/svg">
<path fill-rule="evenodd" clip-rule="evenodd" d="M7.74512 13.0945C7.74512 10.2854 10.0808 7.99982 12.9508 7.99982C15.8209 7.99982 18.1565 10.2854 18.1565 13.0945C18.1565 15.9036 15.8209 18.189 12.9508 18.189C10.0808 18.189 7.74512 15.9036 7.74512 13.0945ZM8.69218 13.0945C8.69218 15.3924 10.6027 17.2625 12.9508 17.2625C15.299 17.2625 17.2095 15.3924 17.2095 13.0945C17.2095 10.7964 15.299 8.92658 12.9508 8.92658C10.6027 8.92658 8.69218 10.7964 8.69218 13.0945Z" fill="#7A7A7A"/>
<path fill-rule="evenodd" clip-rule="evenodd" d="M24.558 10.3125L22.9993 11.193C22.787 11.3129 22.6226 11.6504 22.6615 11.8873C22.6651 11.9082 22.7465 12.4096 22.7465 13.0943C22.7465 13.7781 22.6657 14.2797 22.6618 14.3007C22.6229 14.5378 22.7873 14.8751 22.9996 14.9949L24.5577 15.8754C24.9975 16.1236 25.313 16.5266 25.445 17.0097C25.5767 17.4918 25.5098 17.9946 25.2559 18.425L23.8218 20.8558C23.5681 21.2859 23.1566 21.5949 22.6633 21.7241C22.1706 21.853 21.6562 21.7875 21.2164 21.5387L19.6586 20.6588C19.4466 20.5389 19.0651 20.5683 18.8748 20.7196C18.8578 20.7336 18.4454 21.0598 17.8498 21.3964C17.2613 21.7296 16.76 21.9187 16.7392 21.9263C16.5099 22.0124 16.2932 22.3212 16.2932 22.5612V24.3211C16.2932 25.35 15.4374 26.1877 14.3857 26.1877H11.5174C10.4657 26.1877 9.60991 25.35 9.60991 24.3211V22.5612C9.60991 22.3209 9.39314 22.0124 9.16388 21.9263C9.14307 21.9187 8.64233 21.7299 8.05358 21.3964C7.45828 21.0598 7.04615 20.7336 7.02861 20.7196C6.8386 20.5683 6.4577 20.5383 6.24539 20.6588L4.68668 21.5393C3.7753 22.0532 2.60701 21.7471 2.0807 20.8561L0.646576 18.4253C0.392639 17.9952 0.325735 17.4915 0.457759 17.0094C0.589782 16.5264 0.904677 16.1236 1.34446 15.8751L2.90347 14.9946C3.11548 14.8748 3.27991 14.5369 3.24096 14.3004C3.23739 14.2794 3.15621 13.7781 3.15621 13.094C3.15621 12.4099 3.23739 11.908 3.24096 11.887C3.28021 11.6502 3.11577 11.3126 2.90347 11.1927L1.34446 10.3119C0.904974 10.0635 0.589782 9.66103 0.457759 9.17801C0.325735 8.69586 0.392639 8.19276 0.646576 7.7624L2.0807 5.33158C2.33463 4.90151 2.74617 4.59279 3.23917 4.46359C3.73278 4.33469 4.2463 4.39987 4.68608 4.64836L6.24569 5.52944C6.45859 5.64962 6.8392 5.61994 7.0295 5.46834C7.04645 5.45466 7.45828 5.12877 8.05358 4.7924C8.64203 4.45952 9.14277 4.27038 9.16359 4.26253C9.39284 4.1764 9.60961 3.86767 9.60961 3.62762V1.86662C9.60961 0.837142 10.4654 0 11.5171 0H14.3854C15.4371 0 16.2929 0.837142 16.2932 1.86691V3.62732C16.2932 3.86825 16.5099 4.1764 16.7392 4.26253C16.76 4.27038 17.2607 4.45894 17.8492 4.7924C18.4445 5.12877 18.8563 5.45466 18.8739 5.46863C19.0645 5.62023 19.4454 5.64962 19.6574 5.52944L21.2164 4.64895C21.6562 4.40016 22.1709 4.33498 22.6633 4.46388C23.1566 4.59308 23.5678 4.90181 23.8218 5.33216L25.2559 7.76299C25.5101 8.19305 25.5767 8.69615 25.445 9.17888C25.313 9.66132 24.9978 10.0637 24.558 10.3125ZM21.7998 13.0943C21.7998 12.4885 21.7278 12.0383 21.7275 12.0337C21.6267 11.4223 21.9776 10.7004 22.5259 10.3908L24.0834 9.51001C24.3044 9.38548 24.4626 9.18237 24.5295 8.93853C24.5964 8.69528 24.5628 8.44184 24.4352 8.22535L23.0011 5.79452C22.8735 5.57862 22.6666 5.42382 22.4174 5.35864C22.1673 5.29288 21.9092 5.32576 21.6886 5.45088L20.1296 6.33109C19.5821 6.64098 18.7668 6.57754 18.2762 6.18705C18.2726 6.18385 17.9012 5.89142 17.3749 5.59375C16.8543 5.29957 16.4035 5.12848 16.3987 5.12673C15.8085 4.9053 15.3455 4.24652 15.3455 3.62703V1.86662C15.3455 1.3481 14.9146 0.926181 14.3848 0.926181H11.5165C10.9866 0.926181 10.5558 1.3481 10.5558 1.86662V3.62762C10.5558 4.24711 10.0928 4.9053 9.50227 5.12702C9.4984 5.12819 9.04732 5.29957 8.52696 5.59404C8.00035 5.892 7.62926 6.18414 7.62539 6.18734C7.13447 6.57783 6.32062 6.64098 5.77201 6.33109L4.2124 5.45001C3.99177 5.32605 3.73278 5.29288 3.48419 5.35835C3.23471 5.42353 3.02776 5.57862 2.90019 5.79452L1.46607 8.22535C1.33881 8.44184 1.30491 8.69499 1.37181 8.93853C1.43842 9.18237 1.59691 9.38548 1.81754 9.51001L2.32287 9.79561C2.32208 9.79511 2.32155 9.79459 2.32155 9.79459C2.32155 9.79459 2.41432 9.84697 3.37655 10.3908C3.92516 10.7004 4.27604 11.4223 4.17524 12.0342C4.17464 12.038 4.10298 12.4885 4.10298 13.0943C4.10298 13.6998 4.17464 14.1499 4.17524 14.1543C4.27544 14.7654 3.92487 15.4876 3.37655 15.7972L2.32482 16.3922L2.32393 16.3908C2.25108 16.4344 2.11132 16.513 1.81903 16.6777C1.5984 16.8028 1.43991 17.0056 1.3733 17.2497C1.3064 17.493 1.34 17.7464 1.46756 17.9629L2.90168 20.3937C3.16632 20.8421 3.75478 20.9969 4.21449 20.7374C4.47615 20.5898 4.62691 20.5052 4.72266 20.4563L4.72028 20.4516L5.7729 19.8575C6.31973 19.547 7.13476 19.6107 7.62628 20.0009C7.62955 20.0044 8.00124 20.2974 8.52755 20.5948C9.05267 20.8919 9.499 21.0601 9.50375 21.0618C10.0946 21.2835 10.5573 21.9426 10.5573 22.5615V24.3213C10.5573 24.8399 10.9881 25.2615 11.518 25.2615H14.3862C14.9161 25.2615 15.347 24.8399 15.347 24.3213V22.5615C15.347 21.9426 15.81 21.2838 16.4005 21.0621C16.4047 21.0609 16.856 20.8893 17.377 20.5948C17.9033 20.2974 18.275 20.0044 18.2786 20.0009C18.7698 19.6107 19.5845 19.5473 20.1322 19.8575L21.6898 20.7371C21.911 20.8619 22.17 20.8951 22.4186 20.8296C22.6678 20.7639 22.8747 20.6093 23.0026 20.3929L24.4367 17.962C24.564 17.7461 24.5979 17.4927 24.531 17.2494C24.464 17.0053 24.3059 16.8025 24.0849 16.6774L22.5265 15.7972C21.9782 15.4876 21.627 14.7656 21.7275 14.1537C21.7281 14.1499 21.7998 13.7001 21.7998 13.0943Z" fill="#7A7A7A"/>
</svg>
