<svg width="57" height="56" viewBox="0 0 57 56" fill="none" xmlns="http://www.w3.org/2000/svg">
<ellipse cx="28.2571" cy="28" rx="28.2571" ry="28" fill="#F5F7FA"/>
<path d="M22.2848 18.9873C22.5405 18.841 22.6278 18.5171 22.4797 18.2641C22.3325 18.0111 22.0049 17.925 21.7492 18.0713C19.7008 19.2439 17.9919 20.9346 16.8067 22.9618C15.6246 24.983 15 27.2927 15 29.6417C15 37.0073 21.0563 43 28.5 43C35.9437 43 42 37.0073 42 29.6417C42 27.2927 41.3754 24.983 40.1933 22.9618C39.0085 20.935 37.2995 19.2439 35.2508 18.0713C34.9958 17.9253 34.6682 18.0111 34.5203 18.2641C34.3722 18.5171 34.4595 18.8406 34.7152 18.9873C36.6019 20.0675 38.1765 21.6252 39.2672 23.4918C40.3552 25.352 40.9301 27.4786 40.9301 29.6417C40.9301 36.4238 35.354 41.9414 28.5 41.9414C21.646 41.9414 16.0699 36.4241 16.0699 29.6417C16.0699 27.4786 16.6448 25.352 17.7328 23.4918C18.8238 21.6252 20.3984 20.0668 22.2848 18.9873Z" fill="#A78EC3" stroke="#A78EC3" stroke-width="1.2"/>
<path d="M28 13.5264V29.4736C28 29.7639 28.2239 30 28.5 30C28.7761 30 29 29.7639 29 29.4736V13.5264C29 13.2354 28.7761 13 28.5 13C28.2239 13 28 13.2354 28 13.5264Z" fill="#A78EC3" stroke="#A78EC3" stroke-width="1.2"/>
</svg>
